<svg xmlns="http://www.w3.org/2000/svg" width="1100" height="850" viewBox="0 0 1100 850"><rect width="100%" height="100%" fill="#f8fafc"/><g font-family="Arial,sans-serif" fill="#10243a"><text x="28" y="38" font-size="24" font-weight="700">Artificial Analysis | Intelligence Index v4.2</text><text x="28" y="65" font-size="14">Selected models | 2026-09-07 | Rounded source values | Higher is better</text><line x1="360.0" x2="360.0" y1="86" y2="808" stroke="#dbe3ec"/><text x="360.0" y="832" text-anchor="middle" font-size="13">0</text><line x1="456.66666666666663" x2="456.66666666666663" y1="86" y2="808" stroke="#dbe3ec"/><text x="456.66666666666663" y="832" text-anchor="middle" font-size="13">10</text><line x1="553.3333333333333" x2="553.3333333333333" y1="86" y2="808" stroke="#dbe3ec"/><text x="553.3333333333333" y="832" text-anchor="middle" font-size="13">20</text><line x1="650.0" x2="650.0" y1="86" y2="808" stroke="#dbe3ec"/><text x="650.0" y="832" text-anchor="middle" font-size="13">30</text><line x1="746.6666666666666" x2="746.6666666666666" y1="86" y2="808" stroke="#dbe3ec"/><text x="746.6666666666666" y="832" text-anchor="middle" font-size="13">40</text><line x1="843.3333333333334" x2="843.3333333333334" y1="86" y2="808" stroke="#dbe3ec"/><text x="843.3333333333334" y="832" text-anchor="middle" font-size="13">50</text><line x1="940.0" x2="940.0" y1="86" y2="808" stroke="#dbe3ec"/><text x="940.0" y="832" text-anchor="middle" font-size="13">60</text><text x="28" y="113" font-size="17">Claude Fable 5.1</text><rect x="360" y="97" width="551.0" height="24" rx="4" fill="#2563eb"/><text x="970" y="113" font-size="16">57</text><text x="28" y="153" font-size="17">GPT-6 Astra</text><rect x="360" y="137" width="531.6666666666666" height="24" rx="4" fill="#2563eb"/><text x="970" y="153" font-size="16">55</text><text x="28" y="193" font-size="17">Claude Opus 5</text><rect x="360" y="177" width="522.0" height="24" rx="4" fill="#0f766e"/><text x="970" y="193" font-size="16">54</text><text x="28" y="233" font-size="17">Claude Fable 5</text><rect x="360" y="217" width="512.3333333333334" height="24" rx="4" fill="#0f766e"/><text x="970" y="233" font-size="16">53</text><text x="28" y="273" font-size="17">Muse Spark 1.3</text><rect x="360" y="257" width="512.3333333333334" height="24" rx="4" fill="#0f766e"/><text x="970" y="273" font-size="16">53</text><text x="28" y="313" font-size="17">GPT-5.6 Sol</text><rect x="360" y="297" width="493.0" height="24" rx="4" fill="#0f766e"/><text x="970" y="313" font-size="16">51</text><text x="28" y="353" font-size="17">Grok 4.6</text><rect x="360" y="337" width="493.0" height="24" rx="4" fill="#0f766e"/><text x="970" y="353" font-size="16">51</text><text x="28" y="393" font-size="17">Kimi K3</text><rect x="360" y="377" width="483.33333333333337" height="24" rx="4" fill="#0f766e"/><text x="970" y="393" font-size="16">50</text><text x="28" y="433" font-size="17">GLM-5.3</text><rect x="360" y="417" width="473.66666666666674" height="24" rx="4" fill="#0f766e"/><text x="970" y="433" font-size="16">49</text><text x="28" y="473" font-size="17">Gemini 3.8 Flash</text><rect x="360" y="457" width="454.33333333333326" height="24" rx="4" fill="#0f766e"/><text x="970" y="473" font-size="16">47</text><text x="28" y="513" font-size="17">Qwen3.8 Max</text><rect x="360" y="497" width="454.33333333333326" height="24" rx="4" fill="#0f766e"/><text x="970" y="513" font-size="16">47</text><text x="28" y="553" font-size="17">GLM-5.3 Flash</text><rect x="360" y="537" width="444.66666666666674" height="24" rx="4" fill="#0f766e"/><text x="970" y="553" font-size="16">46</text><text x="28" y="593" font-size="17">GPT-5.6 Luna</text><rect x="360" y="577" width="415.66666666666674" height="24" rx="4" fill="#0f766e"/><text x="970" y="593" font-size="16">43</text><text x="28" y="633" font-size="17">DeepSeek V4 Pro 0813</text><rect x="360" y="617" width="406.0" height="24" rx="4" fill="#0f766e"/><text x="970" y="633" font-size="16">42</text><text x="28" y="673" font-size="17">Qwen3.8 27B</text><rect x="360" y="657" width="396.33333333333326" height="24" rx="4" fill="#0f766e"/><text x="970" y="673" font-size="16">41</text><text x="28" y="713" font-size="17">DeepSeek V4 Flash 0731</text><rect x="360" y="697" width="396.33333333333326" height="24" rx="4" fill="#0f766e"/><text x="970" y="713" font-size="16">41</text><text x="28" y="753" font-size="17">DeepSeek V4 Flash Vision</text><rect x="360" y="737" width="396.33333333333326" height="24" rx="4" fill="#0f766e"/><text x="970" y="753" font-size="16">41</text><text x="28" y="793" font-size="17">MiniMax-M3</text><rect x="360" y="777" width="348.0" height="24" rx="4" fill="#0f766e"/><text x="970" y="793" font-size="16">36</text></g></svg>